<svg xmlns="http://www.w3.org/2000/svg" xmlns:xlink="http://www.w3.org/1999/xlink" contentStyleType="text/css" height="515px" preserveAspectRatio="none" style="width:1808px;height:515px;background:#777777;" version="1.1" viewBox="0 0 1808 515" width="1808px" zoomAndPan="magnify"><defs/><g><rect fill="#777777" height="515" style="stroke:none;stroke-width:1.0;" width="1808" x="0" y="0"/><!--cluster TrainingDataPreparation--><g id="cluster_TrainingDataPreparation"><path d="M8.5,6 L200.5,6 A3.75,3.75 0 0 1 203,8.5 L210,28.2969 L1798.5,28.2969 A2.5,2.5 0 0 1 1801,30.7969 L1801,505.52 A2.5,2.5 0 0 1 1798.5,508.02 L8.5,508.02 A2.5,2.5 0 0 1 6,505.52 L6,8.5 A2.5,2.5 0 0 1 8.5,6 " fill="none" style="stroke:#FFFFFF;stroke-width:1.5;"/><line style="stroke:#FFFFFF;stroke-width:1.5;" x1="6" x2="210" y1="28.2969" y2="28.2969"/><text fill="#FFFFFF" font-family="sans-serif" font-size="14" font-weight="bold" lengthAdjust="spacing" textLength="191" x="10" y="20.9951">TrainingDataPreparation</text></g><!--cluster modules--><g id="cluster_modules"><path d="M32.5,120.8 L100.5,120.8 A3.75,3.75 0 0 1 103,123.3 L110,143.0969 L1650.5,143.0969 A2.5,2.5 0 0 1 1653,145.5969 L1653,351.72 A2.5,2.5 0 0 1 1650.5,354.22 L32.5,354.22 A2.5,2.5 0 0 1 30,351.72 L30,123.3 A2.5,2.5 0 0 1 32.5,120.8 " fill="none" style="stroke:#FFFFFF;stroke-width:1.5;"/><line style="stroke:#FFFFFF;stroke-width:1.5;" x1="30" x2="110" y1="143.0969" y2="143.0969"/><text fill="#FFFFFF" font-family="sans-serif" font-size="14" font-weight="bold" lengthAdjust="spacing" textLength="67" x="34" y="135.7951">modules</text></g><!--cluster utils--><g id="cluster_utils"><path d="M1251.5,378.22 L1285.5,378.22 A3.75,3.75 0 0 1 1288,380.72 L1295,400.5169 L1576.5,400.5169 A2.5,2.5 0 0 1 1579,403.0169 L1579,481.52 A2.5,2.5 0 0 1 1576.5,484.02 L1251.5,484.02 A2.5,2.5 0 0 1 1249,481.52 L1249,380.72 A2.5,2.5 0 0 1 1251.5,378.22 " fill="none" style="stroke:#FFFFFF;stroke-width:1.5;"/><line style="stroke:#FFFFFF;stroke-width:1.5;" x1="1249" x2="1295" y1="400.5169" y2="400.5169"/><text fill="#FFFFFF" font-family="sans-serif" font-size="14" font-weight="bold" lengthAdjust="spacing" textLength="33" x="1253" y="393.2151">utils</text></g><!--class Main--><g id="elem_Main"><rect codeLine="46" fill="#2E2E2E" height="54.8047" id="Main" rx="2.5" ry="2.5" style="stroke:#1B1B1B;stroke-width:0.5;" width="59" x="1084.5" y="41"/><ellipse cx="1099.65" cy="54" fill="#2E5233" rx="8" ry="8" style="stroke:#E7E7E7;stroke-width:1.0;"/><path d="M1101.775,57.5625 Q1101.1969,57.8594 1100.5719,58 Q1099.9625,58.1563 1099.2906,58.1563 Q1097.2906,58.1563 1096.1188,57.0469 Q1094.9469,55.9219 1094.9469,54 Q1094.9469,52.0781 1096.1188,50.9531 Q1097.2906,49.8281 1099.2906,49.8281 Q1099.9625,49.8281 1100.5719,49.9844 Q1101.1969,50.1406 1101.775,50.4375 L1101.775,52.0938 Q1101.1969,51.7031 1100.6344,51.5156 Q1100.0719,51.3281 1099.4625,51.3281 Q1098.3531,51.3281 1097.7125,52.0469 Q1097.0875,52.75 1097.0875,54 Q1097.0875,55.2344 1097.7125,55.9531 Q1098.3531,56.6563 1099.4625,56.6563 Q1100.0719,56.6563 1100.6344,56.4844 Q1101.1969,56.2969 1101.775,55.9063 L1101.775,57.5625 Z " fill="#FFFFFF"/><text fill="#AAAAAA" font-family="Verdana" font-size="11" lengthAdjust="spacing" textLength="26" x="1111.35" y="57.8081">Main</text><line style="stroke:#1B1B1B;stroke-width:0.5;" x1="1085.5" x2="1142.5" y1="67" y2="67"/><line style="stroke:#1B1B1B;stroke-width:0.5;" x1="1085.5" x2="1142.5" y1="75" y2="75"/><ellipse cx="1095.5" cy="86.4023" fill="#84BE84" rx="3" ry="3" style="stroke:#038048;stroke-width:1.0;"/><text fill="#AAAAAA" font-family="sans-serif" font-size="11" lengthAdjust="spacing" textLength="36" x="1101.5" y="89.2104">main()</text></g><!--class classification--><g id="elem_classification"><rect codeLine="5" fill="#2E2E2E" height="54.8047" id="classification" rx="2.5" ry="2.5" style="stroke:#1B1B1B;stroke-width:0.5;" width="100" x="1001" y="155.8"/><ellipse cx="1013" cy="168.8" fill="#2E5233" rx="8" ry="8" style="stroke:#E7E7E7;stroke-width:1.0;"/><path d="M1015.125,172.3625 Q1014.5469,172.6594 1013.9219,172.8 Q1013.3125,172.9562 1012.6406,172.9562 Q1010.6406,172.9562 1009.4688,171.8469 Q1008.2969,170.7219 1008.2969,168.8 Q1008.2969,166.8781 1009.4688,165.7531 Q1010.6406,164.6281 1012.6406,164.6281 Q1013.3125,164.6281 1013.9219,164.7844 Q1014.5469,164.9406 1015.125,165.2375 L1015.125,166.8937 Q1014.5469,166.5031 1013.9844,166.3156 Q1013.4219,166.1281 1012.8125,166.1281 Q1011.7031,166.1281 1011.0625,166.8469 Q1010.4375,167.55 1010.4375,168.8 Q1010.4375,170.0344 1011.0625,170.7531 Q1011.7031,171.4562 1012.8125,171.4562 Q1013.4219,171.4562 1013.9844,171.2844 Q1014.5469,171.0969 1015.125,170.7062 L1015.125,172.3625 Z " fill="#FFFFFF"/><text fill="#AAAAAA" font-family="Verdana" font-size="11" lengthAdjust="spacing" textLength="74" x="1024" y="172.6081">classification</text><line style="stroke:#1B1B1B;stroke-width:0.5;" x1="1002" x2="1100" y1="181.8" y2="181.8"/><line style="stroke:#1B1B1B;stroke-width:0.5;" x1="1002" x2="1100" y1="189.8" y2="189.8"/><ellipse cx="1012" cy="201.2023" fill="#84BE84" rx="3" ry="3" style="stroke:#038048;stroke-width:1.0;"/><text fill="#AAAAAA" font-family="sans-serif" font-size="11" lengthAdjust="spacing" textLength="58" x="1018" y="204.0104">run(): void</text></g><!--class classifier--><g id="elem_classifier"><rect codeLine="9" fill="#2E2E2E" height="67.6094" id="classifier" rx="2.5" ry="2.5" style="stroke:#1B1B1B;stroke-width:0.5;" width="189" x="46.5" y="270.61"/><ellipse cx="111.5" cy="283.61" fill="#2E5233" rx="8" ry="8" style="stroke:#E7E7E7;stroke-width:1.0;"/><path d="M113.625,287.1725 Q113.0469,287.4694 112.4219,287.61 Q111.8125,287.7663 111.1406,287.7663 Q109.1406,287.7663 107.9688,286.6569 Q106.7969,285.5319 106.7969,283.61 Q106.7969,281.6881 107.9688,280.5631 Q109.1406,279.4381 111.1406,279.4381 Q111.8125,279.4381 112.4219,279.5944 Q113.0469,279.7506 113.625,280.0475 L113.625,281.7038 Q113.0469,281.3131 112.4844,281.1256 Q111.9219,280.9381 111.3125,280.9381 Q110.2031,280.9381 109.5625,281.6569 Q108.9375,282.36 108.9375,283.61 Q108.9375,284.8444 109.5625,285.5631 Q110.2031,286.2663 111.3125,286.2663 Q111.9219,286.2663 112.4844,286.0944 Q113.0469,285.9069 113.625,285.5163 L113.625,287.1725 Z " fill="#FFFFFF"/><text fill="#AAAAAA" font-family="Verdana" font-size="11" lengthAdjust="spacing" textLength="52" x="127.5" y="287.4181">classifier</text><line style="stroke:#1B1B1B;stroke-width:0.5;" x1="47.5" x2="234.5" y1="296.61" y2="296.61"/><line style="stroke:#1B1B1B;stroke-width:0.5;" x1="47.5" x2="234.5" y1="304.61" y2="304.61"/><ellipse cx="57.5" cy="316.0123" fill="#84BE84" rx="3" ry="3" style="stroke:#038048;stroke-width:1.0;"/><text fill="#AAAAAA" font-family="sans-serif" font-size="11" lengthAdjust="spacing" textLength="138" x="63.5" y="318.8204">classify_image(img): list</text><ellipse cx="57.5" cy="328.817" fill="#84BE84" rx="3" ry="3" style="stroke:#038048;stroke-width:1.0;"/><text fill="#AAAAAA" font-family="sans-serif" font-size="11" lengthAdjust="spacing" textLength="166" x="63.5" y="331.6251">classify_images(images): list</text></g><!--class collector--><g id="elem_collector"><rect codeLine="14" fill="#2E2E2E" height="54.8047" id="collector" rx="2.5" ry="2.5" style="stroke:#1B1B1B;stroke-width:0.5;" width="178" x="530" y="277.01"/><ellipse cx="591.5" cy="290.01" fill="#2E5233" rx="8" ry="8" style="stroke:#E7E7E7;stroke-width:1.0;"/><path d="M593.625,293.5725 Q593.0469,293.8694 592.4219,294.01 Q591.8125,294.1663 591.1406,294.1663 Q589.1406,294.1663 587.9688,293.0569 Q586.7969,291.9319 586.7969,290.01 Q586.7969,288.0881 587.9688,286.9631 Q589.1406,285.8381 591.1406,285.8381 Q591.8125,285.8381 592.4219,285.9944 Q593.0469,286.1506 593.625,286.4475 L593.625,288.1038 Q593.0469,287.7131 592.4844,287.5256 Q591.9219,287.3381 591.3125,287.3381 Q590.2031,287.3381 589.5625,288.0569 Q588.9375,288.76 588.9375,290.01 Q588.9375,291.2444 589.5625,291.9631 Q590.2031,292.6663 591.3125,292.6663 Q591.9219,292.6663 592.4844,292.4944 Q593.0469,292.3069 593.625,291.9163 L593.625,293.5725 Z " fill="#FFFFFF"/><text fill="#AAAAAA" font-family="Verdana" font-size="11" lengthAdjust="spacing" textLength="48" x="607.5" y="293.8181">collector</text><line style="stroke:#1B1B1B;stroke-width:0.5;" x1="531" x2="707" y1="303.01" y2="303.01"/><line style="stroke:#1B1B1B;stroke-width:0.5;" x1="531" x2="707" y1="311.01" y2="311.01"/><ellipse cx="541" cy="322.4123" fill="#84BE84" rx="3" ry="3" style="stroke:#038048;stroke-width:1.0;"/><text fill="#AAAAAA" font-family="sans-serif" font-size="11" lengthAdjust="spacing" textLength="155" x="547" y="325.2204">fetch_image(url: str): bytes</text></g><!--class report--><g id="elem_report"><rect codeLine="18" fill="#2E2E2E" height="67.6094" id="report" rx="2.5" ry="2.5" style="stroke:#1B1B1B;stroke-width:0.5;" width="225" x="270.5" y="270.61"/><ellipse cx="362" cy="283.61" fill="#2E5233" rx="8" ry="8" style="stroke:#E7E7E7;stroke-width:1.0;"/><path d="M364.125,287.1725 Q363.5469,287.4694 362.9219,287.61 Q362.3125,287.7663 361.6406,287.7663 Q359.6406,287.7663 358.4688,286.6569 Q357.2969,285.5319 357.2969,283.61 Q357.2969,281.6881 358.4688,280.5631 Q359.6406,279.4381 361.6406,279.4381 Q362.3125,279.4381 362.9219,279.5944 Q363.5469,279.7506 364.125,280.0475 L364.125,281.7038 Q363.5469,281.3131 362.9844,281.1256 Q362.4219,280.9381 361.8125,280.9381 Q360.7031,280.9381 360.0625,281.6569 Q359.4375,282.36 359.4375,283.61 Q359.4375,284.8444 360.0625,285.5631 Q360.7031,286.2663 361.8125,286.2663 Q362.4219,286.2663 362.9844,286.0944 Q363.5469,285.9069 364.125,285.5163 L364.125,287.1725 Z " fill="#FFFFFF"/><text fill="#AAAAAA" font-family="Verdana" font-size="11" lengthAdjust="spacing" textLength="35" x="378" y="287.4181">report</text><line style="stroke:#1B1B1B;stroke-width:0.5;" x1="271.5" x2="494.5" y1="296.61" y2="296.61"/><line style="stroke:#1B1B1B;stroke-width:0.5;" x1="271.5" x2="494.5" y1="304.61" y2="304.61"/><ellipse cx="281.5" cy="316.0123" fill="#84BE84" rx="3" ry="3" style="stroke:#038048;stroke-width:1.0;"/><text fill="#AAAAAA" font-family="sans-serif" font-size="11" lengthAdjust="spacing" textLength="202" x="287.5" y="318.8204">write_report(report_data: dict): void</text><ellipse cx="281.5" cy="328.817" fill="#84BE84" rx="3" ry="3" style="stroke:#038048;stroke-width:1.0;"/><text fill="#AAAAAA" font-family="sans-serif" font-size="11" lengthAdjust="spacing" textLength="100" x="287.5" y="331.6251">read_report(): list</text></g><!--class startup--><g id="elem_startup"><rect codeLine="23" fill="#2E2E2E" height="54.8047" id="startup" rx="2.5" ry="2.5" style="stroke:#1B1B1B;stroke-width:0.5;" width="81" x="1136.5" y="155.8"/><ellipse cx="1154.8" cy="168.8" fill="#2E5233" rx="8" ry="8" style="stroke:#E7E7E7;stroke-width:1.0;"/><path d="M1156.925,172.3625 Q1156.3469,172.6594 1155.7219,172.8 Q1155.1125,172.9562 1154.4406,172.9562 Q1152.4406,172.9562 1151.2688,171.8469 Q1150.0969,170.7219 1150.0969,168.8 Q1150.0969,166.8781 1151.2688,165.7531 Q1152.4406,164.6281 1154.4406,164.6281 Q1155.1125,164.6281 1155.7219,164.7844 Q1156.3469,164.9406 1156.925,165.2375 L1156.925,166.8937 Q1156.3469,166.5031 1155.7844,166.3156 Q1155.2219,166.1281 1154.6125,166.1281 Q1153.5031,166.1281 1152.8625,166.8469 Q1152.2375,167.55 1152.2375,168.8 Q1152.2375,170.0344 1152.8625,170.7531 Q1153.5031,171.4562 1154.6125,171.4562 Q1155.2219,171.4562 1155.7844,171.2844 Q1156.3469,171.0969 1156.925,170.7062 L1156.925,172.3625 Z " fill="#FFFFFF"/><text fill="#AAAAAA" font-family="Verdana" font-size="11" lengthAdjust="spacing" textLength="41" x="1167.2" y="172.6081">startup</text><line style="stroke:#1B1B1B;stroke-width:0.5;" x1="1137.5" x2="1216.5" y1="181.8" y2="181.8"/><line style="stroke:#1B1B1B;stroke-width:0.5;" x1="1137.5" x2="1216.5" y1="189.8" y2="189.8"/><ellipse cx="1147.5" cy="201.2023" fill="#84BE84" rx="3" ry="3" style="stroke:#038048;stroke-width:1.0;"/><text fill="#AAAAAA" font-family="sans-serif" font-size="11" lengthAdjust="spacing" textLength="58" x="1153.5" y="204.0104">run(): void</text></g><!--class transformation--><g id="elem_transformation"><rect codeLine="27" fill="#2E2E2E" height="54.8047" id="transformation" rx="2.5" ry="2.5" style="stroke:#1B1B1B;stroke-width:0.5;" width="405" x="742.5" y="277.01"/><ellipse cx="899" cy="290.01" fill="#2E5233" rx="8" ry="8" style="stroke:#E7E7E7;stroke-width:1.0;"/><path d="M901.125,293.5725 Q900.5469,293.8694 899.9219,294.01 Q899.3125,294.1663 898.6406,294.1663 Q896.6406,294.1663 895.4688,293.0569 Q894.2969,291.9319 894.2969,290.01 Q894.2969,288.0881 895.4688,286.9631 Q896.6406,285.8381 898.6406,285.8381 Q899.3125,285.8381 899.9219,285.9944 Q900.5469,286.1506 901.125,286.4475 L901.125,288.1038 Q900.5469,287.7131 899.9844,287.5256 Q899.4219,287.3381 898.8125,287.3381 Q897.7031,287.3381 897.0625,288.0569 Q896.4375,288.76 896.4375,290.01 Q896.4375,291.2444 897.0625,291.9631 Q897.7031,292.6663 898.8125,292.6663 Q899.4219,292.6663 899.9844,292.4944 Q900.5469,292.3069 901.125,291.9163 L901.125,293.5725 Z " fill="#FFFFFF"/><text fill="#AAAAAA" font-family="Verdana" font-size="11" lengthAdjust="spacing" textLength="85" x="915" y="293.8181">transformation</text><line style="stroke:#1B1B1B;stroke-width:0.5;" x1="743.5" x2="1146.5" y1="303.01" y2="303.01"/><line style="stroke:#1B1B1B;stroke-width:0.5;" x1="743.5" x2="1146.5" y1="311.01" y2="311.01"/><ellipse cx="753.5" cy="322.4123" fill="#84BE84" rx="3" ry="3" style="stroke:#038048;stroke-width:1.0;"/><text fill="#AAAAAA" font-family="sans-serif" font-size="11" lengthAdjust="spacing" textLength="382" x="759.5" y="325.2204">resize_image_with_padding(image: bytes, target_size: tuple): bytes</text></g><!--class validation--><g id="elem_validation"><rect codeLine="31" fill="#2E2E2E" height="54.8047" id="validation" rx="2.5" ry="2.5" style="stroke:#1B1B1B;stroke-width:0.5;" width="455" x="1182.5" y="277.01"/><ellipse cx="1379.5" cy="290.01" fill="#2E5233" rx="8" ry="8" style="stroke:#E7E7E7;stroke-width:1.0;"/><path d="M1381.625,293.5725 Q1381.0469,293.8694 1380.4219,294.01 Q1379.8125,294.1663 1379.1406,294.1663 Q1377.1406,294.1663 1375.9688,293.0569 Q1374.7969,291.9319 1374.7969,290.01 Q1374.7969,288.0881 1375.9688,286.9631 Q1377.1406,285.8381 1379.1406,285.8381 Q1379.8125,285.8381 1380.4219,285.9944 Q1381.0469,286.1506 1381.625,286.4475 L1381.625,288.1038 Q1381.0469,287.7131 1380.4844,287.5256 Q1379.9219,287.3381 1379.3125,287.3381 Q1378.2031,287.3381 1377.5625,288.0569 Q1376.9375,288.76 1376.9375,290.01 Q1376.9375,291.2444 1377.5625,291.9631 Q1378.2031,292.6663 1379.3125,292.6663 Q1379.9219,292.6663 1380.4844,292.4944 Q1381.0469,292.3069 1381.625,291.9163 L1381.625,293.5725 Z " fill="#FFFFFF"/><text fill="#AAAAAA" font-family="Verdana" font-size="11" lengthAdjust="spacing" textLength="54" x="1395.5" y="293.8181">validation</text><line style="stroke:#1B1B1B;stroke-width:0.5;" x1="1183.5" x2="1636.5" y1="303.01" y2="303.01"/><line style="stroke:#1B1B1B;stroke-width:0.5;" x1="1183.5" x2="1636.5" y1="311.01" y2="311.01"/><ellipse cx="1193.5" cy="322.4123" fill="#84BE84" rx="3" ry="3" style="stroke:#038048;stroke-width:1.0;"/><text fill="#AAAAAA" font-family="sans-serif" font-size="11" lengthAdjust="spacing" textLength="432" x="1199.5" y="325.2204">validate_image(image: bytes, target_size: tuple, min_occupancy: float): bool</text></g><!--class config--><g id="elem_config"><rect codeLine="37" fill="#2E2E2E" height="54.8047" id="config" rx="2.5" ry="2.5" style="stroke:#1B1B1B;stroke-width:0.5;" width="123" x="1264.5" y="413.22"/><ellipse cx="1305.5" cy="426.22" fill="#2E5233" rx="8" ry="8" style="stroke:#E7E7E7;stroke-width:1.0;"/><path d="M1307.625,429.7825 Q1307.0469,430.0794 1306.4219,430.22 Q1305.8125,430.3762 1305.1406,430.3762 Q1303.1406,430.3762 1301.9688,429.2669 Q1300.7969,428.1419 1300.7969,426.22 Q1300.7969,424.2981 1301.9688,423.1731 Q1303.1406,422.0481 1305.1406,422.0481 Q1305.8125,422.0481 1306.4219,422.2044 Q1307.0469,422.3606 1307.625,422.6575 L1307.625,424.3137 Q1307.0469,423.9231 1306.4844,423.7356 Q1305.9219,423.5481 1305.3125,423.5481 Q1304.2031,423.5481 1303.5625,424.2669 Q1302.9375,424.97 1302.9375,426.22 Q1302.9375,427.4544 1303.5625,428.1731 Q1304.2031,428.8762 1305.3125,428.8762 Q1305.9219,428.8762 1306.4844,428.7044 Q1307.0469,428.5169 1307.625,428.1262 L1307.625,429.7825 Z " fill="#FFFFFF"/><text fill="#AAAAAA" font-family="Verdana" font-size="11" lengthAdjust="spacing" textLength="34" x="1321.5" y="430.0281">config</text><line style="stroke:#1B1B1B;stroke-width:0.5;" x1="1265.5" x2="1386.5" y1="439.22" y2="439.22"/><line style="stroke:#1B1B1B;stroke-width:0.5;" x1="1265.5" x2="1386.5" y1="447.22" y2="447.22"/><ellipse cx="1275.5" cy="458.6223" fill="#84BE84" rx="3" ry="3" style="stroke:#038048;stroke-width:1.0;"/><text fill="#AAAAAA" font-family="sans-serif" font-size="11" lengthAdjust="spacing" textLength="100" x="1281.5" y="461.4304">load_config(): dict</text></g><!--class logger--><g id="elem_logger"><rect codeLine="41" fill="#2E2E2E" height="54.8047" id="logger" rx="2.5" ry="2.5" style="stroke:#1B1B1B;stroke-width:0.5;" width="141" x="1422.5" y="413.22"/><ellipse cx="1471.5" cy="426.22" fill="#2E5233" rx="8" ry="8" style="stroke:#E7E7E7;stroke-width:1.0;"/><path d="M1473.625,429.7825 Q1473.0469,430.0794 1472.4219,430.22 Q1471.8125,430.3762 1471.1406,430.3762 Q1469.1406,430.3762 1467.9688,429.2669 Q1466.7969,428.1419 1466.7969,426.22 Q1466.7969,424.2981 1467.9688,423.1731 Q1469.1406,422.0481 1471.1406,422.0481 Q1471.8125,422.0481 1472.4219,422.2044 Q1473.0469,422.3606 1473.625,422.6575 L1473.625,424.3137 Q1473.0469,423.9231 1472.4844,423.7356 Q1471.9219,423.5481 1471.3125,423.5481 Q1470.2031,423.5481 1469.5625,424.2669 Q1468.9375,424.97 1468.9375,426.22 Q1468.9375,427.4544 1469.5625,428.1731 Q1470.2031,428.8762 1471.3125,428.8762 Q1471.9219,428.8762 1472.4844,428.7044 Q1473.0469,428.5169 1473.625,428.1262 L1473.625,429.7825 Z " fill="#FFFFFF"/><text fill="#AAAAAA" font-family="Verdana" font-size="11" lengthAdjust="spacing" textLength="36" x="1487.5" y="430.0281">logger</text><line style="stroke:#1B1B1B;stroke-width:0.5;" x1="1423.5" x2="1562.5" y1="439.22" y2="439.22"/><line style="stroke:#1B1B1B;stroke-width:0.5;" x1="1423.5" x2="1562.5" y1="447.22" y2="447.22"/><ellipse cx="1433.5" cy="458.6223" fill="#84BE84" rx="3" ry="3" style="stroke:#038048;stroke-width:1.0;"/><text fill="#AAAAAA" font-family="sans-serif" font-size="11" lengthAdjust="spacing" textLength="118" x="1439.5" y="461.4304">setup_logging(): void</text></g><!--link Main to startup--><g id="link_Main_startup"><path codeLine="50" d="M1128.93,96.13 C1138.97,114.11 1149.2342,132.4817 1159.2542,150.4217 " fill="none" id="Main-to-startup" style="stroke:#FFFFFF;stroke-width:1.0;"/><polygon fill="#FFFFFF" points="1162.18,155.66,1161.2836,145.852,1159.7419,151.2947,1154.2992,149.753,1162.18,155.66" style="stroke:#FFFFFF;stroke-width:1.0;"/></g><!--link Main to classification--><g id="link_Main_classification"><path codeLine="51" d="M1099.07,96.13 C1089.03,114.11 1078.7658,132.4817 1068.7458,150.4217 " fill="none" id="Main-to-classification" style="stroke:#FFFFFF;stroke-width:1.0;"/><polygon fill="#FFFFFF" points="1065.82,155.66,1073.7008,149.753,1068.2581,151.2947,1066.7164,145.852,1065.82,155.66" style="stroke:#FFFFFF;stroke-width:1.0;"/></g><!--link startup to collector--><g id="link_startup_collector"><path codeLine="53" d="M1136.03,204.53 C1130.4,206.82 1124.62,208.93 1119,210.61 C949.22,261.11 897.64,230.98 725,270.61 C717.4,272.35 715.3253,272.7794 707.5053,274.9294 " fill="none" id="startup-to-collector" style="stroke:#FFFFFF;stroke-width:1.0;"/><polygon fill="#FFFFFF" points="701.72,276.52,711.4584,277.991,706.5411,275.1945,709.3376,270.2772,701.72,276.52" style="stroke:#FFFFFF;stroke-width:1.0;"/></g><!--link startup to validation--><g id="link_startup_validation"><path codeLine="54" d="M1217.85,205.1 C1256.75,225 1310.1184,252.3073 1352.3984,273.9373 " fill="none" id="startup-to-validation" style="stroke:#FFFFFF;stroke-width:1.0;"/><polygon fill="#FFFFFF" points="1357.74,276.67,1351.5494,269.0099,1353.2887,274.3928,1347.9058,276.132,1357.74,276.67" style="stroke:#FFFFFF;stroke-width:1.0;"/></g><!--link startup to transformation--><g id="link_startup_transformation"><path codeLine="55" d="M1136.06,205.24 C1097.42,225.09 1044.6567,252.2079 1002.6767,273.7779 " fill="none" id="startup-to-transformation" style="stroke:#FFFFFF;stroke-width:1.0;"/><polygon fill="#FFFFFF" points="997.34,276.52,1007.1732,275.9647,1001.7873,274.2349,1003.517,268.849,997.34,276.52" style="stroke:#FFFFFF;stroke-width:1.0;"/></g><!--link startup to report--><g id="link_startup_report"><path codeLine="56" d="M1136.11,204.8 C1130.47,207.06 1124.66,209.08 1119,210.61 C857.65,280.95 779.61,224.03 513,270.61 C507.38,271.59 507.5287,271.4798 501.7487,272.6598 " fill="none" id="startup-to-report" style="stroke:#FFFFFF;stroke-width:1.0;"/><polygon fill="#FFFFFF" points="495.87,273.86,505.4882,275.9789,500.769,272.8599,503.888,268.1406,495.87,273.86" style="stroke:#FFFFFF;stroke-width:1.0;"/></g><!--link classification to classifier--><g id="link_classification_classifier"><path codeLine="58" d="M1000.58,186.56 C873.84,193.15 532.15,215.07 253,270.61 C247.34,271.73 247.3881,271.6357 241.5681,273.0157 " fill="none" id="classification-to-classifier" style="stroke:#FFFFFF;stroke-width:1.0;"/><polygon fill="#FFFFFF" points="235.73,274.4,245.4101,276.2156,240.5951,273.2464,243.5643,268.4315,235.73,274.4" style="stroke:#FFFFFF;stroke-width:1.0;"/></g><!--link classification to report--><g id="link_classification_report"><path codeLine="59" d="M1000.67,190.78 C905.13,203.6 691.13,233.9 513,270.61 C507.41,271.76 507.5671,271.6884 501.8071,272.9684 " fill="none" id="classification-to-report" style="stroke:#FFFFFF;stroke-width:1.0;"/><polygon fill="#FFFFFF" points="495.95,274.27,505.6034,276.2224,500.8309,273.1853,503.868,268.4129,495.95,274.27" style="stroke:#FFFFFF;stroke-width:1.0;"/></g><!--link collector to config--><g id="link_collector_config"><path codeLine="61" d="M660.49,332.19 C679.45,343.21 702.63,355.05 725,362.22 C915.1,423.11 1147.5818,436.1126 1258.2818,438.8326 " fill="none" id="collector-to-config" style="stroke:#FFFFFF;stroke-width:1.0;"/><polygon fill="#FFFFFF" points="1264.28,438.98,1255.381,434.7601,1259.2815,438.8572,1255.1845,442.7577,1264.28,438.98" style="stroke:#FFFFFF;stroke-width:1.0;"/></g><!--link collector to logger--><g id="link_collector_logger"><path codeLine="62" d="M657.89,332.08 C677.17,343.74 701.34,356.13 725,362.22 C761.59,371.63 1369.38,357.62 1405,370.22 C1429.4,378.84 1447.8797,393.0764 1464.1497,408.7564 " fill="none" id="collector-to-logger" style="stroke:#FFFFFF;stroke-width:1.0;"/><polygon fill="#FFFFFF" points="1468.47,412.92,1464.7653,403.7945,1464.8698,409.4503,1459.2139,409.5548,1468.47,412.92" style="stroke:#FFFFFF;stroke-width:1.0;"/></g><!--link transformation to config--><g id="link_transformation_config"><path codeLine="64" d="M1021.19,332.25 C1092.52,357.38 1192.1408,392.4666 1258.4308,415.8166 " fill="none" id="transformation-to-config" style="stroke:#FFFFFF;stroke-width:1.0;"/><polygon fill="#FFFFFF" points="1264.09,417.81,1256.9301,411.0471,1259.374,416.1488,1254.2723,418.5927,1264.09,417.81" style="stroke:#FFFFFF;stroke-width:1.0;"/></g><!--link transformation to logger--><g id="link_transformation_logger"><path codeLine="65" d="M1030.84,332.24 C1071.14,343.63 1120.1,355.75 1165,362.22 C1191.41,366.02 1379.94,361.05 1405,370.22 C1429.12,379.04 1447.4199,393.0671 1463.6999,408.6071 " fill="none" id="transformation-to-logger" style="stroke:#FFFFFF;stroke-width:1.0;"/><polygon fill="#FFFFFF" points="1468.04,412.75,1464.2917,403.6423,1464.4232,409.2976,1458.7679,409.4291,1468.04,412.75" style="stroke:#FFFFFF;stroke-width:1.0;"/></g><!--link validation to config--><g id="link_validation_config"><path codeLine="67" d="M1393.2,332.25 C1378.55,355.65 1360.5923,384.3435 1345.9523,407.7435 " fill="none" id="validation-to-config" style="stroke:#FFFFFF;stroke-width:1.0;"/><polygon fill="#FFFFFF" points="1342.77,412.83,1350.9345,407.3218,1345.4219,408.5912,1344.1525,403.0787,1342.77,412.83" style="stroke:#FFFFFF;stroke-width:1.0;"/></g><!--link validation to logger--><g id="link_validation_logger"><path codeLine="68" d="M1426.6,332.25 C1441.07,355.65 1458.8044,384.3269 1473.2744,407.7269 " fill="none" id="validation-to-logger" style="stroke:#FFFFFF;stroke-width:1.0;"/><polygon fill="#FFFFFF" points="1476.43,412.83,1475.0986,403.0715,1473.8003,408.5774,1468.2944,407.2791,1476.43,412.83" style="stroke:#FFFFFF;stroke-width:1.0;"/></g><!--link classification to config--><g id="link_classification_config"><path codeLine="70" d="M1101.41,205.42 C1107.27,207.4 1113.22,209.19 1119,210.61 C1235.39,239.2 1575.1,181.27 1655,270.61 C1682.14,300.96 1683.33,332.97 1655,362.22 C1645.33,372.2 1417.92,365.11 1405,370.22 C1382.59,379.07 1366.3726,392.8531 1351.9526,408.3831 " fill="none" id="classification-to-config" style="stroke:#FFFFFF;stroke-width:1.0;"/><polygon fill="#FFFFFF" points="1347.87,412.78,1356.9251,408.9064,1351.2722,409.1159,1351.0627,403.463,1347.87,412.78" style="stroke:#FFFFFF;stroke-width:1.0;"/></g><!--link classification to logger--><g id="link_classification_logger"><path codeLine="71" d="M1101.4,205.45 C1107.27,207.42 1113.22,209.2 1119,210.61 C1239.53,239.98 1591.13,178.29 1674,270.61 C1701.2,300.9 1696.43,328.23 1674,362.22 C1649.53,399.3 1609.0446,417.1999 1569.4046,427.2899 " fill="none" id="classification-to-logger" style="stroke:#FFFFFF;stroke-width:1.0;"/><polygon fill="#FFFFFF" points="1563.59,428.77,1573.2986,430.4263,1568.4355,427.5366,1571.3252,422.6735,1563.59,428.77" style="stroke:#FFFFFF;stroke-width:1.0;"/></g><!--link startup to config--><g id="link_startup_config"><path codeLine="73" d="M1217.71,184.73 C1326.97,187.08 1622.43,199.98 1682,270.61 C1708.25,301.73 1710.37,333.01 1682,362.22 C1671.27,373.26 1419.33,364.58 1405,370.22 C1382.58,379.04 1366.3481,392.809 1351.9481,408.349 " fill="none" id="startup-to-config" style="stroke:#FFFFFF;stroke-width:1.0;"/><polygon fill="#FFFFFF" points="1347.87,412.75,1356.9212,408.8673,1351.2685,409.0825,1351.0532,403.4297,1347.87,412.75" style="stroke:#FFFFFF;stroke-width:1.0;"/></g><!--link startup to logger--><g id="link_startup_logger"><path codeLine="74" d="M1217.6,184.45 C1329.59,186.07 1638.73,197.23 1701,270.61 C1727.34,301.65 1724.23,328.78 1701,362.22 C1670.33,406.36 1617.2326,424.3498 1569.8826,432.5198 " fill="none" id="startup-to-logger" style="stroke:#FFFFFF;stroke-width:1.0;"/><polygon fill="#FFFFFF" points="1563.97,433.54,1573.5191,435.9515,1568.8972,432.6898,1572.1588,428.068,1563.97,433.54" style="stroke:#FFFFFF;stroke-width:1.0;"/></g><!--SRC=[fLGzJyGm3DtxAm9J4NT_e0CJAn83UnGIjnUH9fNZWWvq_vtaqgzBUu14XhJDiv-TPxitT80M689I2DxlbS2t1W5iqGdv9XfWjoyejDMsUHGadX4wWOAqixVigs1XdRVHk7MgD-07A2vfXFTfrxMMPzS57DSzzhQygzYxqse2JjFR5Ih0d6P0Zbot8PTIjqqWDThJJsQ-J8_Sz7fyPmn8SglmDP0y3B5xD1NpX87rzKZWVwSDmZgadFC3DG5FM9aUN8KwL4nfIRbcIKmGQlJuywKy2QI- -rTX28NrjSDskyRWzISaUVY7fWFlX5AXhPB-Wqux5X9fW7WqhbX8oS3VDNmNHglDw0C2Ksly77B7McsvaxBlX9N7YjN6YIZtgtCco-EqdeAUjDcO0MThtUIP1MB54nIbZcNz_QB6DSsw_ps4v7d4egpRTJiLnKpp50PxGNBVXk_oBh_LsMg_VnYRvFBmSh9dhx6ZpZRZoAoGkM8hwBATLd3gy3bUzeTPfWPupM95CirsIZjMPGD8yizkMUTdlXjeJh1etCmvGtB7hLilibwZES5bcIRFvV7WKfo-0G00]--></g></svg>